<?xml version="1.0" standalone="no"?>
<!DOCTYPE svg PUBLIC "-//W3C//DTD SVG 20010904//EN"
 "http://www.w3.org/TR/2001/REC-SVG-20010904/DTD/svg10.dtd">
<svg version="1.0" xmlns="http://www.w3.org/2000/svg"
 width="1024.000000pt" height="748.000000pt" viewBox="0 0 1024.000000 748.000000"
 preserveAspectRatio="xMidYMid meet">

<g transform="translate(0.000000,748.000000) scale(0.100000,-0.100000)"
fill="#000000" stroke="none">
<path d="M1225 4616 c-16 -8 -42 -26 -56 -42 -27 -30 -461 -770 -479 -818 -19
-50 -10 -73 81 -228 108 -182 114 -189 124 -157 9 27 400 719 451 796 60 93
74 97 384 103 299 6 304 7 352 84 51 81 108 197 108 221 0 56 8 55 -483 55
-355 -1 -458 -4 -482 -14z"/>
<path d="M9332 4400 c-100 -61 -96 -207 8 -261 96 -52 208 10 217 120 11 121
-121 204 -225 141z m155 -32 c14 -13 32 -36 40 -52 31 -59 -14 -145 -87 -167
-32 -10 -44 -9 -76 7 -45 22 -84 75 -84 113 0 40 33 92 71 113 43 24 102 18
136 -14z"/>
<path d="M9350 4270 c0 -47 4 -80 10 -80 6 0 10 16 10 35 0 30 3 35 24 35 42
0 56 -11 56 -41 0 -19 5 -29 15 -29 16 0 20 36 6 59 -5 7 -4 25 2 41 16 43 -3
60 -69 60 l-54 0 0 -80z m100 35 c0 -22 -4 -25 -40 -25 -36 0 -40 3 -40 25 0
23 4 25 40 25 36 0 40 -2 40 -25z"/>
<path d="M3370 4330 c-178 -18 -293 -78 -348 -184 -22 -43 -26 -64 -27 -136
-1 -199 93 -269 462 -345 155 -32 197 -62 139 -100 -67 -44 -249 -22 -454 55
-151 57 -149 59 -133 -120 6 -72 14 -137 17 -145 20 -50 452 -84 622 -49 197
41 300 140 310 300 8 119 -33 203 -127 263 -62 40 -134 64 -268 91 -204 41
-255 63 -221 96 41 41 225 26 393 -33 124 -43 136 -46 154 -34 13 8 13 26 2
133 -7 68 -17 131 -22 140 -11 21 -51 33 -169 52 -127 19 -239 25 -330 16z"/>
<path d="M4465 4330 c-150 -16 -269 -70 -344 -155 -93 -107 -132 -310 -96
-509 35 -199 155 -318 365 -362 106 -22 319 -15 411 15 138 44 233 134 281
266 30 84 37 292 14 398 -49 218 -208 334 -481 350 -44 2 -111 1 -150 -3z
m210 -319 c99 -45 138 -159 100 -287 -26 -89 -97 -134 -210 -134 -144 0 -224
77 -225 216 0 153 70 224 220 224 51 0 88 -6 115 -19z"/>
<path d="M7499 4330 c-259 -25 -428 -153 -484 -367 -22 -84 -20 -256 4 -332
50 -161 170 -266 361 -318 103 -28 424 -25 545 5 139 35 135 30 135 173 0 100
-3 121 -16 126 -8 3 -62 -9 -119 -26 -308 -95 -523 -36 -566 155 -22 97 13
209 84 270 96 82 272 86 495 13 91 -30 96 -24 87 110 -3 58 -11 113 -16 123
-24 45 -328 85 -510 68z"/>
<path d="M8566 4329 c-229 -24 -362 -126 -422 -324 -27 -88 -25 -316 3 -402
71 -214 239 -313 530 -313 312 1 487 125 535 380 16 87 4 293 -21 365 -25 71
-80 155 -124 188 -116 88 -300 127 -501 106z m212 -315 c99 -41 143 -152 111
-281 -15 -58 -70 -117 -124 -132 -57 -16 -149 -14 -193 5 -90 37 -128 112
-120 234 10 130 78 190 216 190 43 0 88 -6 110 -16z"/>
<path d="M5188 4309 c-17 -9 -18 -44 -18 -497 0 -366 3 -491 12 -500 9 -9 116
-12 419 -12 357 0 410 2 423 16 12 12 16 38 16 115 0 55 -5 109 -10 120 -10
18 -24 19 -270 19 l-260 0 0 55 0 55 208 0 c148 0 211 3 220 12 13 13 17 202
6 232 -5 14 -34 16 -220 16 l-214 0 0 55 0 55 244 0 c213 0 245 2 250 16 3 9
6 65 6 124 0 98 -2 110 -19 120 -27 14 -769 13 -793 -1z"/>
<path d="M6106 4304 c-14 -14 -16 -72 -16 -494 0 -422 2 -480 16 -494 13 -14
67 -16 433 -16 311 0 420 3 429 12 18 18 17 262 -1 277 -9 7 -103 12 -278 13
l-264 3 -3 345 c-2 310 -4 346 -19 358 -11 8 -59 12 -149 12 -107 0 -136 -3
-148 -16z"/>
<path d="M1540 4151 c-44 -9 -69 -23 -97 -53 -30 -32 -143 -229 -143 -249 0
-9 8 -23 18 -32 16 -14 70 -17 462 -19 409 -3 448 -4 482 -21 21 -11 40 -28
43 -38 5 -13 -28 -80 -106 -217 -131 -231 -146 -252 -196 -284 -37 -22 -47
-23 -308 -28 -243 -4 -273 -7 -302 -24 -21 -13 -51 -54 -93 -129 -73 -130 -83
-167 -49 -191 21 -14 73 -16 468 -16 543 0 499 -11 595 148 91 153 383 658
406 703 11 21 20 51 20 68 0 37 -174 336 -213 365 -28 21 -39 21 -490 23 -254
0 -478 -2 -497 -6z"/>
</g>
</svg>
